<?xml version="1.0" encoding="UTF-8"?>
<svg xmlns="http://www.w3.org/2000/svg" width="375" height="4922" viewBox="0 0 375 4922" fill="none">
  <g opacity="0.2">
    <path d="M1.69331e-05 311.714L267.948 197.196L2.69446e-05 82.6779L3.05176e-05 0.937209L374.398 161.181L374.398 233.21L1.33778e-05 393.05L1.69331e-05 311.714Z" fill="white"></path>
    <path d="M1.69331e-05 2305.05L267.948 2190.53L2.69446e-05 2076.01L3.05176e-05 1994.27L374.398 2154.52L374.398 2226.55L1.33778e-05 2386.39L1.69331e-05 2305.05Z" fill="white"></path>
    <path d="M74.8809 797.707L74.8809 722.846L0.40593 722.846L0.405926 797.707L74.8809 797.707Z" fill="white"></path>
    <path d="M74.8789 2228.58L74.8789 2153.71L0.403976 2153.71L0.403973 2228.58L74.8789 2228.58Z" fill="white"></path>
    <path d="M74.8809 234.388L74.8809 159.526L0.40593 159.526L0.405926 234.388L74.8809 234.388Z" fill="white"></path>
    <path d="M121.427 950.668C140.045 1000.04 189.83 1033.62 243.258 1033.62C315.709 1033.62 374.398 974.947 374.398 902.513L374.398 722.846L298.304 722.846L186.997 807.014L112.117 863.666L2.06476e-05 948.644L1.65617e-05 1042.12L121.427 950.668ZM186.997 902.513L186.997 900.49L299.519 815.512L299.519 902.513C299.519 933.267 273.614 958.356 243.258 958.356C212.901 958.356 186.997 933.267 186.997 902.513Z" fill="white"></path>
    <path d="M74.8797 1629.28L74.8797 1467.01L149.759 1467.01L149.759 1490.48L149.759 1579.91L149.759 1654.36L225.044 1654.36L225.044 1530.94L299.519 1481.58L299.519 1668.93L374.398 1668.93L374.398 1392.15L299.519 1392.15L225.044 1441.11L225.044 1392.15L3.05176e-05 1392.15L1.79944e-05 1678.64L74.8797 1629.28Z" fill="white"></path>
  </g>
  <g opacity="0.2">
    <path d="M1.69331e-05 3028.54L267.948 2914.02L2.69446e-05 2799.5L3.05176e-05 2717.76L374.398 2878.01L374.398 2950.03L1.33778e-05 3109.87L1.69331e-05 3028.54Z" fill="white"></path>
    <path d="M1.69331e-05 5021.87L267.948 4907.36L2.69446e-05 4792.84L3.05176e-05 4711.1L374.398 4871.34L374.398 4943.37L1.33778e-05 5103.21L1.69331e-05 5021.87Z" fill="white"></path>
    <path d="M74.8809 3514.53L74.8809 3439.67L0.40593 3439.67L0.405926 3514.53L74.8809 3514.53Z" fill="white"></path>
    <path d="M74.8789 4945.4L74.8789 4870.54L0.403976 4870.54L0.403973 4945.4L74.8789 4945.4Z" fill="white"></path>
    <path d="M74.8809 2951.21L74.8809 2876.35L0.40593 2876.35L0.405926 2951.21L74.8809 2951.21Z" fill="white"></path>
    <path d="M121.427 3667.49C140.045 3716.86 189.83 3750.45 243.258 3750.45C315.709 3750.45 374.398 3691.77 374.398 3619.34L374.398 3439.67L298.304 3439.67L186.997 3523.84L112.117 3580.49L2.06476e-05 3665.47L1.65617e-05 3758.94L121.427 3667.49ZM186.997 3619.34L186.997 3617.31L299.519 3532.34L299.519 3619.34C299.519 3650.09 273.614 3675.18 243.258 3675.18C212.901 3675.18 186.997 3650.09 186.997 3619.34Z" fill="white"></path>
    <path d="M74.8797 4346.1L74.8797 4183.83L149.759 4183.83L149.759 4207.3L149.759 4296.73L149.759 4371.19L225.044 4371.19L225.044 4247.77L299.519 4198.4L299.519 4385.76L374.398 4385.76L374.398 4108.97L299.519 4108.97L225.044 4157.93L225.044 4108.97L3.05176e-05 4108.97L1.79944e-05 4395.47L74.8797 4346.1Z" fill="white"></path>
  </g>
</svg>
