<?xml version="1.0" encoding="UTF-8"?>
<svg xmlns="http://www.w3.org/2000/svg" width="1828" height="4075" viewBox="0 0 1828 4075" fill="none">
  <g opacity="0.15">
    <path d="M554.603 668.242L350.248 190.093L145.892 668.242H0.0273438L285.98 0.133606H414.515L699.746 668.242H554.603Z" fill="white"></path>
    <path d="M1682.16 1803.8L1477.81 1325.65L1273.45 1803.8H1127.59L1413.54 1135.69H1542.07L1827.3 1803.8H1682.16Z" fill="white"></path>
    <path d="M1326.16 534.621H1192.57V667.52H1326.16V534.621Z" fill="white"></path>
    <path d="M1545.7 1670.18H1412.11V1803.08H1545.7V1670.18Z" fill="white"></path>
    <path d="M416.617 534.621H283.027V667.52H416.617V534.621Z" fill="white"></path>
    <path d="M1599.12 451.558C1687.22 418.333 1747.15 329.493 1747.15 234.152C1747.15 104.864 1642.44 0.133606 1513.19 0.133606H1192.57V135.922L1342.77 334.549L1443.87 468.17L1595.51 668.242H1762.31L1599.12 451.558ZM1513.19 334.549H1509.58L1357.94 133.755H1513.19C1568.07 133.755 1612.84 179.981 1612.84 234.152C1612.84 288.323 1568.07 334.549 1513.19 334.549Z" fill="white"></path>
    <path d="M517.413 1670.18H227.849V1536.56H269.731H429.316H562.183V1402.21H341.941L253.845 1269.31H588.179V1135.69H94.2598V1269.31L181.634 1402.21H94.2598V1803.8H605.509L517.413 1670.18Z" fill="white"></path>
  </g>
  <g opacity="0.15">
    <path d="M554.603 2939.36L350.248 2461.21L145.892 2939.36H0.0273438L285.98 2271.25H414.515L699.746 2939.36H554.603Z" fill="white"></path>
    <path d="M1682.16 4074.92L1477.81 3596.77L1273.45 4074.92H1127.59L1413.54 3406.81H1542.07L1827.3 4074.92H1682.16Z" fill="white"></path>
    <path d="M1326.16 2805.74H1192.57V2938.64H1326.16V2805.74Z" fill="white"></path>
    <path d="M1545.7 3941.3H1412.11V4074.2H1545.7V3941.3Z" fill="white"></path>
    <path d="M416.617 2805.74H283.027V2938.64H416.617V2805.74Z" fill="white"></path>
    <path d="M1599.12 2722.68C1687.22 2689.45 1747.15 2600.61 1747.15 2505.27C1747.15 2375.98 1642.44 2271.25 1513.19 2271.25H1192.57V2407.04L1342.77 2605.67L1443.87 2739.29L1595.51 2939.36H1762.31L1599.12 2722.68ZM1513.19 2605.67H1509.58L1357.94 2404.87H1513.19C1568.07 2404.87 1612.84 2451.1 1612.84 2505.27C1612.84 2559.44 1568.07 2605.67 1513.19 2605.67Z" fill="white"></path>
    <path d="M517.413 3941.3H227.849V3807.68H269.731H429.316H562.183V3673.33H341.941L253.845 3540.43H588.179V3406.81H94.2598V3540.43L181.634 3673.33H94.2598V4074.92H605.509L517.413 3941.3Z" fill="white"></path>
  </g>
</svg>
