<svg xmlns="http://www.w3.org/2000/svg" width="134" height="22" viewBox="0 0 134 22" fill="#FFFF">
    <path d="M17.4396 21.3163L11.0133 6.28012L4.58697 21.3163H0L8.99228 0.306519H13.0343L22.0038 21.3163H17.4396Z"></path>
    <path d="M129.298 21.3163L122.872 6.28012L116.446 21.3163H111.859L120.851 0.306519H124.893L133.862 21.3163H129.298Z"></path>
    <path d="M44.7114 17.1144H40.5105V21.2936H44.7114V17.1144Z"></path>
    <path d="M125.007 17.1144H120.806V21.2936H125.007V17.1144Z"></path>
    <path d="M13.1004 17.1144H8.89941V21.2936H13.1004V17.1144Z"></path>
    <path d="M53.295 14.5023C56.0653 13.4575 57.9501 10.6638 57.9501 7.66563C57.9501 3.59995 54.6575 0.306519 50.5928 0.306519H40.5105V4.57662L45.2337 10.8228L48.4128 15.0247L53.1814 21.3163H58.4269L53.295 14.5023ZM50.5928 10.8228H50.4792L45.7106 4.50848H50.5928C52.3185 4.50848 53.7264 5.96213 53.7264 7.66563C53.7264 9.36912 52.3185 10.8228 50.5928 10.8228Z"></path>
    <path d="M91.3761 17.1144H82.2703V12.9124H83.5873H88.6057H92.784V8.68772H85.8581L83.0878 4.50848H93.6015V0.306519H78.0693V4.50848L80.817 8.68772H78.0693V21.3163H94.1464L91.3761 17.1144Z"></path>
</svg>